:SAMPLES-PER-SECOND 30
:FULLY-SPECIFIED
:DEGREES
555
root  -21.3275 39.6398 -1.16931 -177.257 49.3593 -179.221
RightUpLeg  -21.1192 0.39644 -0.912641
RightLeg  17.6633 3.39464 1.01468
RightFoot  -8.87675 -0.0923676 1.52754
RightToes  3.49245e-010 0 -3.6325e-017
Spine  9.87988 -1.72535 -5.01939
Spine1  5.82445 -3.10431 4.12741
HEad  -14.1681 -10.0504 5.54939
LeftShoulder1  0.276806 2.67591 -27.2771
LeftArm  -12.6453 12.9956 -34.9719
LeftForeArm  15.0722 -8.52081 -3.90241
LeftHand  0.04565 6.71058 6.41451
RightShoulder  -0.528872 -5.24971 23.4994
RightArm  3.9737 -5.0503 43.3365
RightForeArm  2.36454 21.3717 4.4996
RightHand  -0.360418 1.94514 -5.91145
LeftUpLeg  -0.33628 13.041 6.92969
LeftLeg  14.6593 8.61562 1.68564
LeftFoot  -12.5733 0.0157914 -5.52727
LeftToes  -2.21735e-009 9.83027e-011 -4.04511e-011
556
root  -21.48 39.7325 -1.30124 -177.097 53.8845 -178.512
RightUpLeg  -21.5796 -2.39308 -1.30628
RightLeg  17.7139 2.27845 0.608742
RightFoot  -7.98973 -0.0806396 0.892319
RightToes  3.49245e-010 0 -3.6325e-017
Spine  10.2774 -1.97376 -4.66684
Spine1  5.59054 -3.24753 3.64677
HEad  -14.063 -9.24935 5.53042
LeftShoulder1  0.330916 2.50224 -26.8533
LeftArm  -12.6037 12.2665 -34.9323
LeftForeArm  13.7357 -9.90462 -4.01966
LeftHand  -0.0163019 5.49198 6.62116
RightShoulder  -0.533904 -5.26066 23.5874
RightArm  5.0616 -4.64228 41.202
RightForeArm  0.709746 16.0917 3.86959
RightHand  -0.384961 0.917816 -7.12888
LeftUpLeg  1.78557 13.2137 7.11318
LeftLeg  13.1373 12.9369 1.5487
LeftFoot  -12.1386 0.0342843 -5.52052
LeftToes  -2.21735e-009 9.83027e-011 -4.04511e-011
557
root  -21.5217 39.7556 -1.42757 -176.915 57.5074 -178.328
RightUpLeg  -22.5079 -4.27566 -2.40609
RightLeg  17.6116 2.04324 0.523291
RightFoot  -7.81848 -0.0773016 0.778736
RightToes  3.49245e-010 0 -3.6325e-017
Spine  10.2369 -2.41343 -4.90679
Spine1  5.37584 -3.73572 3.71396
HEad  -14.4203 -9.07901 4.42074
LeftShoulder1  0.278577 2.65857 -26.7762
LeftArm  -12.5972 10.6406 -35.2272
LeftForeArm  11.4339 -11.1875 -4.09781
LeftHand  0.0169787 6.06932 7.14231
RightShoulder  -0.534257 -5.26876 23.4694
RightArm  3.84488 -5.57188 39.0546
RightForeArm  1.61947 12.9219 3.49576
RightHand  -0.280088 1.05093 -5.22757
LeftUpLeg  3.1128 12.4029 6.73743
LeftLeg  12.0365 17.3315 1.39952
LeftFoot  -11.8964 0.0436551 -5.69401
LeftToes  -2.21735e-009 9.83027e-011 -4.04511e-011
558
root  -21.4397 39.7939 -1.5713 -177.102 60.4098 -178.263
RightUpLeg  -22.4885 -5.22684 -3.70238
RightLeg  16.3684 1.50004 0.289505
RightFoot  -7.5708 -0.0963739 1.36953
RightToes  3.49245e-010 0 -3.6325e-017
Spine  10.289 -2.7689 -5.0849
Spine1  5.26071 -4.28413 4.33029
HEad  -14.3376 -7.80095 4.26153
LeftShoulder1  0.224092 2.82392 -26.7691
LeftArm  -13.5542 8.20269 -36.396
LeftForeArm  9.99265 -11.6902 -3.75349
LeftHand  -0.00584575 5.66182 7.21995
RightShoulder  -0.55198 -5.34089 23.25
RightArm  2.87734 -7.55819 36.7613
RightForeArm  -0.17943 10.9887 3.10916
RightHand  -0.37967 2.86402 -5.56007
LeftUpLeg  5.06311 11.4745 6.27202
LeftLeg  10.1103 21.1676 1.09489
LeftFoot  -11.3517 0.0675165 -5.85513
LeftToes  -2.21735e-009 9.83027e-011 -4.04511e-011
559
root  -21.2388 39.7665 -1.68778 -177.344 62.9919 -178.358
RightUpLeg  -22.5301 -6.38631 -4.79612
RightLeg  15.3402 1.09306 0.136159
RightFoot  -7.35855 -0.0830192 0.960426
RightToes  3.49245e-010 0 -3.6325e-017
Spine  10.0362 -3.08626 -5.46094
Spine1  5.4353 -4.84523 5.11635
HEad  -14.2288 -5.98283 3.37045
LeftShoulder1  0.154465 3.03758 -26.9632
LeftArm  -14.1554 5.05992 -37.4799
LeftForeArm  9.66384 -12.0798 -3.59106
LeftHand  0.00859896 5.89093 7.44578
RightShoulder  -0.522825 -5.25261 23.0793
RightArm  3.07166 -10.1193 34.5219
RightForeArm  -2.60966 10.163 3.00596
RightHand  -0.432645 1.92939 -6.98649
LeftUpLeg  6.67118 11.1765 5.7828
LeftLeg  8.79934 23.9958 1.05775
LeftFoot  -11.0929 0.0797615 -6.21961
LeftToes  -2.21735e-009 9.83027e-011 -4.04511e-011
560
root  -20.9131 39.686 -1.78976 -177.509 65.2599 -178.416
RightUpLeg  -22.3645 -7.64834 -5.50508
RightLeg  14.3346 -0.264574 -0.257093
RightFoot  -7.04958 -0.0675468 0.523694
RightToes  3.49245e-010 0 -3.6325e-017
Spine  9.76583 -3.29409 -5.72745
Spine1  5.47293 -5.30955 6.05492
HEad  -14.3865 -5.00094 3.04093
LeftShoulder1  0.132038 3.11296 -27.5997
LeftArm  -14.3041 1.32966 -38.2797
LeftForeArm  10.0396 -11.9709 -3.59366
LeftHand  0.0157317 6.01898 7.3451
RightShoulder  -0.550302 -5.33422 23.2678
RightArm  4.05939 -12.3662 32.0953
RightForeArm  -3.22995 9.06618 3.03526
RightHand  -0.324743 1.15558 -5.88339
LeftUpLeg  8.05048 11.1864 5.57012
LeftLeg  8.16501 26.1266 1.07691
LeftFoot  -11.2343 0.0737096 -6.85075
LeftToes  -2.21735e-009 9.83027e-011 -4.04511e-011
561
root  -20.4972 39.5894 -1.83221 -178.154 66.9042 -179.093
RightUpLeg  -22.1548 -10.1852 -5.82559
RightLeg  13.874 -1.39783 -0.459947
RightFoot  -7.06413 -0.0789244 0.831342
RightToes  3.49245e-010 0 -3.6325e-017
Spine  9.33968 -3.71573 -6.14491
Spine1  5.78343 -5.97532 6.82266
HEad  -14.3856 -3.90871 2.81526
LeftShoulder1  0.114427 3.16516 -27.6261
LeftArm  -14.5057 -2.235 -39.4001
LeftForeArm  10.8483 -11.9509 -3.53591
LeftHand  -0.0111991 5.58172 6.97731
RightShoulder  -0.56938 -5.37384 23.6741
RightArm  4.10785 -14.9618 30.7465
RightForeArm  -3.93686 8.35355 2.7805
RightHand  -0.480161 2.93987 -6.91371
LeftUpLeg  9.2394 11.0764 5.28714
LeftLeg  7.68481 27.6603 1.07671
LeftFoot  -11.3691 0.0660962 -7.62312
LeftToes  -2.21735e-009 9.83027e-011 -4.04511e-011
562
root  -19.9816 39.4354 -1.80142 -179.221 68.6295 179.7
RightUpLeg  -21.9817 -12.2149 -5.8878
RightLeg  13.8183 -2.89194 -0.766385
RightFoot  -6.72226 -0.0656406 0.473864
RightToes  3.49245e-010 0 -3.6325e-017
Spine  9.34797 -3.89238 -7.0098
Spine1  5.43174 -6.4629 7.96863
HEad  -14.1676 -3.28492 2.19184
LeftShoulder1  0.0680841 3.30319 -27.7661
LeftArm  -13.6585 -5.70864 -40.298
LeftForeArm  11.0202 -11.8819 -3.91023
LeftHand  -0.0317374 5.21319 6.979
RightShoulder  -0.568923 -5.3774 23.5911
RightArm  4.14539 -18.0094 30.3773
RightForeArm  -4.31157 7.92029 2.5472
RightHand  -0.606781 4.28046 -7.56606
LeftUpLeg  10.2397 11.1487 5.10317
LeftLeg  7.79981 28.9668 1.12216
LeftFoot  -11.7049 0.0430056 -8.4634
LeftToes  -2.21735e-009 9.83027e-011 -4.04511e-011
563
root  -19.3697 39.2717 -1.7183 179.69 70.0131 178.649
RightUpLeg  -21.3675 -14.5481 -5.45338
RightLeg  14.134 -4.03538 -1.0078
RightFoot  -6.20566 -0.0521546 0.192473
RightToes  3.49245e-010 0 -3.6325e-017
Spine  9.69804 -4.14633 -7.29812
Spine1  4.88795 -6.88 8.63856
HEad  -14.063 -2.91945 2.54288
LeftShoulder1  0.057767 3.33328 -27.7649
LeftArm  -12.8572 -8.69773 -41.2976
LeftForeArm  11.4737 -12.1177 -4.22209
LeftHand  -0.00211672 5.73847 7.06237
RightShoulder  -0.608952 -5.50183 23.7246
RightArm  3.40523 -21.3006 30.767
RightForeArm  -4.52218 7.71654 2.07872
RightHand  -0.589521 4.34997 -7.21615
LeftUpLeg  11.5532 11.4037 5.4045
LeftLeg  7.85952 29.5188 1.02315
LeftFoot  -12.06 0.011369 -9.62758
LeftToes  -2.21735e-009 9.83027e-011 -4.04511e-011
564
root  -18.6712 39.1194 -1.6124 179.082 71.4502 177.937
RightUpLeg  -20.9354 -16.2578 -4.71614
RightLeg  14.8127 -4.90312 -1.24592
RightFoot  -4.58131 -0.0334879 0.144994
RightToes  3.49245e-010 0 -3.6325e-017
Spine  9.95065 -4.3997 -6.85782
Spine1  4.33851 -7.12806 8.85934
HEad  -14.4286 -2.46074 2.38427
LeftShoulder1  0.0876577 3.24287 -27.4138
LeftArm  -11.884 -10.6807 -42.41
LeftForeArm  12.0402 -13.1657 -4.43972
LeftHand  0.000812972 5.7833 7.05432
RightShoulder  -0.651535 -5.60371 24.3149
RightArm  2.21702 -24.5473 31.6314
RightForeArm  -3.82536 7.41612 1.44877
RightHand  -0.372763 1.84581 -6.11322
LeftUpLeg  13.0771 11.4571 5.74753
LeftLeg  7.29538 30.0915 0.8457
LeftFoot  -12.1866 -0.00787513 -11.0555
LeftToes  -2.21735e-009 9.83027e-011 -4.04511e-011
